<svg width="512" height="512" viewBox="0 0 512 512" fill="none" xmlns="http://www.w3.org/2000/svg">
  <defs>
    <linearGradient id="gemini-gradient" x1="100" y1="400" x2="400" y2="100" gradientUnits="userSpaceOnUse">
      <stop offset="0%" stop-color="#2196f3" />
      <stop offset="100%" stop-color="#e91e63" />
    </linearGradient>
    
    <filter id="card-shadow" x="-50%" y="-50%" width="200%" height="200%">
      <feDropShadow dx="0" dy="8" stdDeviation="12" flood-color="#000" flood-opacity="0.2"/>
    </filter>
  </defs>

  <circle cx="256" cy="256" r="256" fill="#1a1b1e"/>

  <g transform="translate(0, 30)">
    <rect x="140" y="60" width="260" height="360" rx="32" transform="rotate(6 270 240)" fill="url(#gemini-gradient)" opacity="0.9"/>

    <g filter="url(#card-shadow)">
      <rect x="126" y="50" width="260" height="360" rx="32" fill="#ffffff"/>
    </g>

    <g transform="translate(166, 170)" fill="url(#gemini-gradient)">
        <rect x="0" y="45" width="12" height="30" rx="6" />
        <rect x="24" y="30" width="12" height="60" rx="6" />
        <rect x="48" y="15" width="12" height="90" rx="6" />
        <rect x="72" y="30" width="12" height="60" rx="6" />
        <rect x="96" y="45" width="12" height="30" rx="6" />
        
        <path d="M160 20C160 20 150 60 110 60C150 60 160 100 160 100C160 100 170 60 210 60C170 60 160 20 160 20Z" />
    </g>
  </g>
</svg>